<svg width="64" height="64" xmlns="http://www.w3.org/2000/svg">
 <title/>

 <g>
  <title>background</title>
  <rect fill="none" id="canvas_background" height="402" width="582" y="-1" x="-1"/>
 </g>
 <g>
  <title>Layer 1</title>
  <path clip-rule="nonzero" fill="#000000" fill-rule="nonzero" stroke="#333333" stroke-width="1px" stroke-miterlimit="4" stroke-dashoffset="0" id="path1180" d="m21.91797,27.93934l-0.07617,0.02539c-1.64231,0.54743 -2.5918,1.72461 -2.5918,2.97461c0,1.25 0.94949,2.42717 2.5918,2.97461l0.07617,0.02539l20.16406,0l0.07617,-0.02539c1.64231,-0.54744 2.5918,-1.72461 2.5918,-2.97461c0,-1.25 -0.94949,-2.42718 -2.5918,-2.97461l-0.07617,-0.02539l-20.16406,0zm0.19922,1l19.76562,0c1.31634,0.45638 1.86719,1.26053 1.86719,2c0,0.73947 -0.55085,1.54361 -1.86719,2l-19.76562,0c-1.31633,-0.45639 -1.86719,-1.26053 -1.86719,-2c0,-0.73947 0.55085,-1.54362 1.86719,-2z"/>
  <path clip-rule="nonzero" fill="#000000" fill-rule="nonzero" stroke="#333333" stroke-width="1px" stroke-miterlimit="4" stroke-dashoffset="0" id="path1182" d="m25.54688,33.22645c0,0 -2.03885,4.29704 -2.29688,8.68359c-0.12902,2.19327 0.18579,4.44444 1.50977,6.17578c1.32397,1.73135 3.63904,2.85352 7.24023,2.85352c3.60119,0 5.91626,-1.12217 7.24023,-2.85352c1.32398,-1.73134 1.63879,-3.98251 1.50977,-6.17578c-0.25803,-4.38655 -2.29687,-8.68359 -2.29687,-8.68359l-0.90625,0.42578c0,0 1.96115,4.20295 2.20312,8.3164c0.12098,2.05673 -0.18921,4.05362 -1.30273,5.50977c-1.11353,1.45615 -3.04846,2.46094 -6.44727,2.46094c-3.39881,0 -5.33374,-1.00479 -6.44727,-2.46094c-1.11352,-1.45615 -1.42371,-3.45304 -1.30273,-5.50977c0.24197,-4.11345 2.20313,-8.3164 2.20313,-8.3164l-0.90625,-0.42578z"/>
  <path clip-rule="nonzero" fill="#000000" fill-rule="nonzero" stroke="#333333" stroke-width="1" stroke-miterlimit="4" stroke-dashoffset="0" id="path1188" d="m32.00098,13.06066c-3.03164,0 -5.4995,2.47525 -5.4995,5.50689c0,3.03165 2.46786,5.49951 5.4995,5.49951c3.03165,0 5.49951,-2.46786 5.49951,-5.49951c0,-3.03164 -2.46786,-5.50689 -5.49951,-5.50689zm0,1.00394c2.49121,0 4.49558,2.01175 4.49558,4.50295c0,2.4912 -2.00437,4.49557 -4.49558,4.49557c-2.4912,0 -4.50295,-2.00437 -4.50295,-4.49557c0,-2.4912 2.01175,-4.50295 4.50295,-4.50295z"/>
  <path clip-rule="nonzero" fill="#000000" fill-rule="nonzero" stroke="#333333" stroke-width="1px" stroke-miterlimit="4" stroke-dashoffset="0" id="path1202" d="m27.5,21.43934l0,7l1,0l0,-7l-1,0z"/>
  <path clip-rule="nonzero" fill="#000000" fill-rule="nonzero" stroke="#333333" stroke-width="1px" stroke-miterlimit="4" stroke-dashoffset="0" id="path1204" d="m35.5,21.43934l0,7l1,0l0,-7l-1,0z"/>
  <path clip-rule="nonzero" fill="#000000" fill-rule="nonzero" stroke="#333333" stroke-width="1px" stroke-miterlimit="4" stroke-dashoffset="0" id="path1206" d="m27.54688,33.2284c0,0 -1.78289,3.78974 -2.16993,7.66016c-0.19352,1.9352 -0.04843,3.92097 0.93555,5.47461c0.98397,1.55364 2.82386,2.57617 5.6875,2.57617c2.86364,0 4.70353,-1.02253 5.6875,-2.57617c0.98397,-1.55364 1.12907,-3.53941 0.93555,-5.47461c-0.38704,-3.87042 -2.16992,-7.66016 -2.16992,-7.66016l-0.90625,0.42188c0,0 1.71712,3.7083 2.08007,7.33789c0.18148,1.81479 0.01407,3.58098 -0.7832,4.83984c-0.79728,1.25886 -2.20739,2.11133 -4.84375,2.11133c-2.63636,0 -4.04647,-0.85247 -4.84375,-2.11133c-0.79728,-1.25886 -0.96468,-3.02505 -0.7832,-4.83984c0.36296,-3.62959 2.08008,-7.33789 2.08008,-7.33789l-0.90625,-0.42188z"/>
  <path clip-rule="nonzero" fill="#000000" fill-rule="nonzero" stroke="#333333" stroke-width="1.035714" stroke-miterlimit="4" stroke-dashoffset="0" id="path1227" d="m28.42578,18.99988c0.24721,1.75832 1.74973,3.12305 3.57422,3.12305l0,-1.0332c-1.26464,0 -2.30908,-0.89534 -2.54102,-2.08985l-1.0332,0z"/>
  <path clip-rule="nonzero" fill="#000000" fill-rule="nonzero" stroke="#333333" stroke-width="1px" stroke-miterlimit="4" stroke-dashoffset="0" id="path1239" d="m24,31.49988l0,1l16,0l0,-1l-16,0z"/>
  <path clip-rule="nonzero" fill="#000000" fill-rule="nonzero" stroke="#333333" stroke-width="1px" stroke-miterlimit="4" stroke-dashoffset="0" id="path1241" d="m28.94727,24.16004l0,3.45117l2.5,0l0,-1l-1.5,0l0,-2.45117l-1,0z"/>
 </g>
</svg>