<svg width="91.635" height="72.824" xmlns="http://www.w3.org/2000/svg">

 <g>
  <title>background</title>
  <rect fill="none" id="canvas_background" height="402" width="582" y="-1" x="-1"/>
 </g>
 <g>
  <title>Layer 1</title>
  <path fill="#333333" stroke="null" id="svg_1" d="m91.507487,72.891108l-12.404611,-26.054c3.781005,-4.877 5.696474,-10.579 5.696474,-16.97c0,-9.335 -4.705783,-17.143 -13.60902,-22.577c-7.628921,-4.658 -17.850417,-7.223 -28.782973,-7.223c-14.386992,0 -27.470707,4.508 -34.998761,12.06c-4.932483,4.947 -7.427187,10.932 -7.415203,17.786c0.016978,9.946 4.710776,18.279 13.573068,24.099c7.643901,5.019 17.883373,7.783 28.83091,7.783c6.60028,0 13.115672,-1.038 18.901029,-3.007c9.595323,3.688 24.377793,11.153 24.529592,11.23l5.679496,2.873zm-49.100131,-68.473c10.145596,0 19.564153,2.339 26.520961,6.586c5.258053,3.21 11.525773,9.088 11.525773,18.862c0,5.814 -1.868531,10.943 -5.553663,15.247l-0.919785,1.075l8.171205,17.163c-5.489747,-2.663 -13.876667,-6.601 -20.062494,-8.916l-0.745016,-0.279l-0.748012,0.269c-5.507723,1.975 -11.80041,3.019 -18.198956,3.019c-10.110642,0 -19.503233,-2.511 -26.448058,-7.071c-5.286016,-3.471 -11.591685,-9.84 -11.61066,-20.467c-0.009987,-5.657 2.058281,-10.605 6.144882,-14.705c6.731107,-6.752 18.66534,-10.783 31.923823,-10.783z"/>
 </g>
</svg>