<svg width="117" height="117" xmlns="http://www.w3.org/2000/svg">
 <title/>
 <desc/>

 <g>
  <title>background</title>
  <rect fill="none" id="canvas_background" height="402" width="582" y="-1" x="-1"/>
 </g>
 <g>
  <title>Layer 1</title>
  <path id="Shape" fill="#333333" d="m58.5,116.3c32,0 57.9,-26 57.9,-57.9c0,-32 -26,-57.9 -57.9,-57.9c-31.9,0 -57.9,25.9 -57.9,57.9c0,31.9 25.9,57.9 57.9,57.9zm0,-107.7c27.5,0 49.8,22.3 49.8,49.8c0,27.5 -22.3,49.8 -49.8,49.8c-27.5,0 -49.8,-22.4 -49.8,-49.8c0,-27.5 22.3,-49.8 49.8,-49.8z"/>
  <path id="Shape" fill="#333333" d="m55.8,65.034932l19.3,0c2.3,0 4.1,-1.8 4.1,-4.1c0,-2.3 -1.8,-4.1 -4.1,-4.1l-15.2,0l0,-23.8c0,-2.3 -1.8,-4.1 -4.1,-4.1c-2.3,0 -4.1,1.8 -4.1,4.1l0,27.9c0,2.3 1.8,4.1 4.1,4.1z"/>
 </g>
</svg>