<svg width="24" height="24" xmlns="http://www.w3.org/2000/svg">
 <title/>

 <g>
  <title>background</title>
  <rect fill="none" id="canvas_background" height="402" width="582" y="-1" x="-1"/>
 </g>
 <g>
  <title>Layer 1</title>
  <path fill="#333333" id="svg_1" d="m15.984,16.98214l0,-6c0,-2.484 -1.5,-4.5 -3.984,-4.5s-3.984,2.016 -3.984,4.5l0,6l7.969,0l-0.001,0zm2.016,-1.032l2.016,2.016l0,0.984l-16.031,0l0,-0.984l2.016,-2.016l0,-4.969c0,-3.094 1.641,-5.625 4.5,-6.328l0,-0.703c0,-0.844 0.656,-1.5 1.5,-1.5s1.5,0.656 1.5,1.5l0,0.703c2.859,0.703 4.5,3.281 4.5,6.328l0,4.969l-0.001,0zm-6,6c-1.078,0 -2.016,-0.891 -2.016,-1.969l4.031,0c0,1.078 -0.938,1.969 -2.016,1.969l0.001,0z"/>
 </g>
</svg>