<svg width="50" height="50" xmlns="http://www.w3.org/2000/svg">

 <g>
  <title>background</title>
  <rect fill="none" id="canvas_background" height="402" width="582" y="-1" x="-1"/>
 </g>
 <g>
  <title>Layer 1</title>
  <path fill="#333333" id="svg_1" d="m45.633,17.348c0.907,2.444 1.367,5.019 1.367,7.652c0,12.131 -9.869,22 -22,22c-6.595,0 -12.795,-2.963 -16.958,-8l6.958,0l0,-2l-10,0l0,10l2,0l0,-6.126c4.53,5.133 11.068,8.126 18,8.126c13.234,0 24,-10.767 24,-24c0,-2.872 -0.502,-5.68 -1.492,-8.348l-1.875,0.696z"/>
  <path fill="#333333" id="svg_2" d="m35,13l10,0l0,-10l-2,0l0,6.125c-4.53,-5.133 -11.066,-8.125 -18,-8.125c-13.233,0 -24,10.767 -24,24c0,2.872 0.502,5.68 1.492,8.348l1.875,-0.696c-0.907,-2.444 -1.367,-5.019 -1.367,-7.652c0,-12.131 9.869,-22 22,-22c6.598,0 12.795,2.962 16.958,8l-6.958,0l0,2z"/>
 </g>
</svg>