<svg width="512" height="512" xmlns="http://www.w3.org/2000/svg">

 <g>
  <title>background</title>
  <rect fill="none" id="canvas_background" height="402" width="582" y="-1" x="-1"/>
 </g>
 <g>
  <title>Layer 1</title>
  <path id="svg_2" d="m268.057556,255.674919l-0.5,0l0,0c0.2,0 0.3,0 0.5,0z"/>
  <path transform="rotate(-45 295.0377807617188,220.9492645263672) " id="svg_3" d="m351.537766,124.949303l-48.5,0c0,0 26,17 31.6,48l16.4,0l0.5,0c17.6,0 31.5,13.9 31.5,31.5l0,32c0,17.6 -13.9,32.5 -31.5,32.5l-112,0c-17.6,0 -32.5,-14.9 -32.5,-32.5l0,-31.5l-48,0l0,31.5c0,11.5 2.5,22.5 6.9,32.5c12.6,28.2 40.9,48 73.6,48l112,0c44.2,0 79.5,-36.3 79.5,-80.5l0,-32c0,-44.2 -35.3,-79.5 -79.5,-79.5z"/>
  <path transform="rotate(-45 211.5575561523438,303.6749267578125) " id="svg_4" d="m341.157556,255.674919c-12.1,-28.3 -40.1,-48 -73.1,-48l-112,0c-44.2,0 -80.5,35.3 -80.5,79.5l0,32c0,44.2 36.3,80.5 80.5,80.5l47.5,0c0,0 -25.8,-17 -32.1,-48l-15.4,0c-17.6,0 -32.5,-14.9 -32.5,-32.5l0,-32c0,-17.6 14.9,-31.5 32.5,-31.5l111.5,0l0.5,0c17.6,0 31.5,13.9 31.5,31.5l0,32c0,0.2 0,0.3 0,0.5l48,0c0,-0.2 0,-0.3 0,-0.5l0,-32c0,-11.2 -2.3,-21.9 -6.4,-31.5z"/>
 </g>
</svg>